# xmcd CD database file
#
# Track frame offsets:
#	150
#	16997
#	35090
#	52115
#	69409
#	86802
#	102505
#	117298
#	131329
#	144228
#	156784
#	178339
#
# Disc length: 2617 seconds
#
# Revision: 0
# Processed by: cddbd v1.5.2PL0 Copyright (c) Steve Scherf et al.
# Submitted via: CDex 1.79
#
DISCID=a80a370c
DTITLE=Hillbilly Deluxe - More Bang For The Buck
DYEAR=2013
DGENRE=Country
TTITLE0=More Bang For The Buck
TTITLE1=Down To Nashville
TTITLE2=Good Man
TTITLE3=The Coward
TTITLE4=Black Top Highway
TTITLE5=Mothertrucker
TTITLE6=How Long
TTITLE7=Strong Like A Stallion
TTITLE8=Hank 
TTITLE9=Drink 'Til I'm Blind
TTITLE10=Left Her Behind
TTITLE11=Givin' Up, Givin' In
EXTD=YEAR: 2013
EXTT0=
EXTT1=
EXTT2=
EXTT3=
EXTT4=
EXTT5=
EXTT6=
EXTT7=
EXTT8=
EXTT9=
EXTT10=
EXTT11=
PLAYORDER=
